<svg xmlns="http://www.w3.org/2000/svg" viewBox="0 0 3939 532" fill="none">
  <g>
    <!-- IPOG geometric shapes in red #D71C37 -->
    <path fill="#D71C37" fill-rule="nonzero" d="M0 0h145v532H0z"/>
    <path fill="#D71C37" fill-rule="nonzero" d="M185 0h145v292h-145z"/>
    <path fill="#D71C37" fill-rule="nonzero" d="M370 240h145v292H370z"/>
    <path fill="#D71C37" fill-rule="nonzero" d="M555 0c80.08 0 145 64.92 145 145s-64.92 145-145 145-145-64.92-145-145S474.92 0 555 0zm0 56c-49.15 0-89 39.85-89 89s39.85 89 89 89 89-39.85 89-89-39.85-89-89-89z"/>
    <path fill="#D71C37" fill-rule="nonzero" d="M740 0h277c80.08 0 145 64.92 145 145 0 55.78-31.48 104.24-77.64 128.42C1132.5 297.76 1162 348.22 1162 406c0 80.08-64.92 145-145 145H740V0zm145 56v180h132c49.15 0 89-39.85 89-89s-39.85-89-89-89H885zm0 240v180h132c49.15 0 89-39.85 89-89s-39.85-89-89-89H885z"/>
    
    <!-- Text in gray rgb(128,128,128) -->
    <g fill="rgb(128,128,128)">
      <path d="M1280 180h60v180h-60z"/>
      <path d="M1380 180h180l120 120v60h-60v-30l-90-90h-90v180h-60z"/>
      <path d="M1820 300c0-66 54-120 120-120s120 54 120 120v60h-180v60c0 33 27 60 60 60h120v60h-120c-66 0-120-54-120-120v-120zm60 0v60h120v-60c0-33-27-60-60-60s-60 27-60 60z"/>
      <path d="M2180 240h60v60h-60zm0 120h60v180h-60z"/>
      <path d="M2360 240h60v120c0 33 27 60 60 60h60c33 0 60-27 60-60V240h60v120c0 66-54 120-120 120h-60c-66 0-120-54-120-120V240z"/>
      <path d="M2840 240h60v60h-60zm0 120h60v180h-60z"/>
      <path d="M3020 240h180c66 0 120 54 120 120s-54 120-120 120h-120v120h-60V240zm60 60v120h120c33 0 60-27 60-60s-27-60-60-60h-120z"/>
      <path d="M3440 240h180c66 0 120 54 120 120v120c0 66-54 120-120 120h-180V240zm60 60v300h120c33 0 60-27 60-60V360c0-33-27-60-60-60h-120z"/>
    </g>
  </g>
</svg>
