<?xml version="1.0" encoding="UTF-8" standalone="no"?>
<!DOCTYPE svg PUBLIC "-//W3C//DTD SVG 1.1//EN" "http://www.w3.org/Graphics/SVG/1.1/DTD/svg11.dtd">
<svg width="100%" height="100%" viewBox="0 0 3939 532" version="1.1" xmlns="http://www.w3.org/2000/svg" xmlns:xlink="http://www.w3.org/1999/xlink" xml:space="preserve" xmlns:serif="http://www.serif.com/" style="fill-rule:evenodd;clip-rule:evenodd;stroke-linejoin:round;stroke-miterlimit:2;">
    <g transform="matrix(1,0,0,1,-3389.58375,-2924.997917)">
        <g transform="matrix(4.166667,0,0,4.166667,6079.175,2941.8225)">
            <path d="M0,25.298L-12.677,25.298L-12.677,21.331L-9.011,21.331L-9.011,3.967L-12.677,3.967L-12.677,0L0,0L0,3.967L-3.645,3.967L-3.645,21.331L0,21.331L0,25.298Z" style="fill:rgb(128,128,128);fill-rule:nonzero;"/>
        </g>
        <g transform="matrix(4.166667,0,0,4.166667,6160.76875,2941.8225)">
            <path d="M0,25.298L-9.563,7.221L-9.563,25.298L-14.802,25.298L-14.802,0L-7.857,0L1.044,17.055L1.044,0L6.3,0L6.3,25.298L0,25.298Z" style="fill:rgb(128,128,128);fill-rule:nonzero;"/>
        </g>
        <g transform="matrix(4.166667,0,0,4.166667,6289.332917,2972.36875)">
            <path d="M0,10.636C0,13.173 -0.866,15.116 -2.592,16.469C-4.319,17.823 -6.864,18.497 -10.229,18.497C-12.558,18.497 -14.577,18.124 -16.291,17.381C-18.005,16.639 -19.401,15.438 -20.479,13.78L-16.359,10.746C-15.752,11.574 -15.175,12.197 -14.632,12.613C-14.089,13.024 -13.444,13.347 -12.698,13.58C-11.951,13.814 -11.09,13.928 -10.114,13.928C-8.663,13.928 -7.526,13.686 -6.712,13.207C-5.893,12.723 -5.486,11.989 -5.486,11.001C-5.486,10.441 -5.63,9.974 -5.914,9.597C-6.198,9.219 -6.623,8.892 -7.195,8.617C-7.764,8.345 -8.748,8.031 -10.152,7.675C-11.519,7.323 -12.808,6.966 -14.017,6.606C-15.222,6.249 -16.266,5.783 -17.148,5.21C-18.026,4.637 -18.718,3.916 -19.223,3.051C-19.732,2.185 -19.982,1.095 -19.982,-0.22C-19.982,-2.622 -19.142,-4.497 -17.458,-5.842C-15.778,-7.186 -13.368,-7.861 -10.229,-7.861C-5.689,-7.861 -2.474,-6.363 -0.59,-3.364L-4.671,-0.292C-5.393,-1.366 -6.203,-2.134 -7.098,-2.596C-7.997,-3.058 -9.066,-3.292 -10.305,-3.292C-11.544,-3.292 -12.554,-3.075 -13.334,-2.643C-14.11,-2.21 -14.501,-1.531 -14.501,-0.606C-14.501,0.212 -14.094,0.836 -13.283,1.269C-12.477,1.701 -11.064,2.138 -9.054,2.575C-7.942,2.855 -6.839,3.157 -5.753,3.479C-4.663,3.806 -3.691,4.251 -2.838,4.824C-1.986,5.397 -1.298,6.148 -0.781,7.072C-0.263,7.997 0,9.185 0,10.636" style="fill:rgb(128,128,128);fill-rule:nonzero;"/>
        </g>
        <g transform="matrix(4.166667,0,0,4.166667,6351.465,3027.572917)">
            <path d="M0,-15.862L0,4.718L-5.35,4.718L-5.35,-15.862L-13.431,-15.862L-13.431,-20.58L8.086,-20.58L8.086,-15.862L0,-15.862Z" style="fill:rgb(128,128,128);fill-rule:nonzero;"/>
        </g>
        <g transform="matrix(4.166667,0,0,4.166667,6448.793333,2941.8225)">
            <path d="M0,25.298L-12.676,25.298L-12.676,21.331L-9.011,21.331L-9.011,3.967L-12.676,3.967L-12.676,0L0,0L0,3.967L-3.644,3.967L-3.644,21.331L0,21.331L0,25.298Z" style="fill:rgb(128,128,128);fill-rule:nonzero;"/>
        </g>
        <g transform="matrix(4.166667,0,0,4.166667,6515.594583,3027.572917)">
            <path d="M0,-15.862L0,4.718L-5.35,4.718L-5.35,-15.862L-13.432,-15.862L-13.432,-20.58L8.086,-20.58L8.086,-15.862L0,-15.862Z" style="fill:rgb(128,128,128);fill-rule:nonzero;"/>
        </g>
        <g transform="matrix(4.166667,0,0,4.166667,6653.89625,2988.2075)">
            <path d="M0,3.602C0,7.56 -0.835,10.407 -2.507,12.138C-4.174,13.869 -6.94,14.734 -10.797,14.734C-14.619,14.734 -17.373,13.877 -19.061,12.163C-20.75,10.454 -21.594,7.598 -21.594,3.602L-21.594,-11.132L-16.244,-11.132L-16.244,3.233C-16.244,4.951 -16.074,6.304 -15.731,7.293C-15.391,8.281 -14.848,9.007 -14.102,9.469C-13.355,9.932 -12.265,10.161 -10.835,10.161C-8.799,10.161 -7.377,9.643 -6.567,8.6C-5.757,7.556 -5.354,5.795 -5.354,3.309L-5.354,-11.132L0,-11.132L0,3.602Z" style="fill:rgb(128,128,128);fill-rule:nonzero;"/>
        </g>
        <g transform="matrix(4.166667,0,0,4.166667,6724.479167,3027.572917)">
            <path d="M0,-15.862L0,4.718L-5.35,4.718L-5.35,-15.862L-13.431,-15.862L-13.431,-20.58L8.086,-20.58L8.086,-15.862L0,-15.862Z" style="fill:rgb(128,128,128);fill-rule:nonzero;"/>
        </g>
        <g transform="matrix(4.166667,0,0,4.166667,6857.93875,2994.535833)">
            <path d="M0,-0.004C0,4.395 -0.963,7.692 -2.893,9.885C-4.819,12.078 -7.628,13.177 -11.306,13.177C-15.192,13.177 -18.047,12.023 -19.875,9.711C-21.704,7.403 -22.616,4.166 -22.616,-0.004C-22.616,-4.196 -21.704,-7.437 -19.875,-9.736C-18.047,-12.031 -15.192,-13.181 -11.306,-13.181C-7.398,-13.181 -4.535,-12.031 -2.719,-9.736C-0.908,-7.437 0,-4.196 0,-0.004M-5.52,-0.004C-5.52,-2.999 -5.96,-5.184 -6.838,-6.554C-7.717,-7.925 -9.206,-8.612 -11.306,-8.612C-13.406,-8.612 -14.895,-7.925 -15.777,-6.554C-16.656,-5.184 -17.097,-2.999 -17.097,-0.004C-17.097,2.995 -16.647,5.18 -15.756,6.551C-14.865,7.921 -13.38,8.608 -11.306,8.608C-9.206,8.608 -7.717,7.921 -6.838,6.551C-5.96,5.18 -5.52,2.995 -5.52,-0.004" style="fill:rgb(128,128,128);fill-rule:nonzero;"/>
        </g>
        <g transform="matrix(4.166667,0,0,4.166667,7000.66125,2994.535833)">
            <path d="M0,-0.004C0,3.046 -0.437,5.494 -1.311,7.348C-2.185,9.198 -3.5,10.547 -5.256,11.387C-7.017,12.227 -9.49,12.647 -12.676,12.647L-20.682,12.647L-20.682,-12.651L-12.753,-12.651C-9.651,-12.651 -7.191,-12.218 -5.362,-11.352C-3.534,-10.487 -2.185,-9.138 -1.311,-7.305C-0.437,-5.473 0,-3.037 0,-0.004M-5.524,-0.038C-5.524,-2.244 -5.749,-3.882 -6.198,-4.946C-6.644,-6.011 -7.407,-6.779 -8.485,-7.242C-9.558,-7.704 -11.153,-7.933 -13.266,-7.933L-15.315,-7.933L-15.315,7.929L-13.266,7.929C-11.153,7.929 -9.563,7.696 -8.494,7.225C-7.424,6.758 -6.661,5.974 -6.207,4.879C-5.749,3.78 -5.524,2.143 -5.524,-0.038" style="fill:rgb(128,128,128);fill-rule:nonzero;"/>
        </g>
        <g transform="matrix(4.166667,0,0,4.166667,7019.309583,2941.8225)">
            <path d="M0,25.298L0,0L17.059,0L17.059,4.553L5.35,4.553L5.35,9.945L15.218,9.945L15.218,14.514L5.35,14.514L5.35,20.58L17.059,20.58L17.059,25.298L0,25.298Z" style="fill:rgb(128,128,128);fill-rule:nonzero;"/>
        </g>
        <g transform="matrix(4.166667,0,0,4.166667,6110.089167,3201.344583)">
            <path d="M0,-8.334C0,-5.288 -0.742,-3.027 -2.227,-1.55C-3.716,-0.078 -6.13,0.66 -9.469,0.66L-13.834,0.66L-13.834,8.481L-19.184,8.481L-19.184,-16.815L-9.316,-16.815C-6.342,-16.815 -4.047,-16.149 -2.426,-14.812C-0.81,-13.48 0,-11.321 0,-8.334M-5.519,-8.296C-5.519,-9.721 -5.931,-10.752 -6.745,-11.384C-7.56,-12.021 -9.032,-12.339 -11.157,-12.339L-13.834,-12.339L-13.834,-3.837L-11.649,-3.837C-9.689,-3.837 -8.332,-3.969 -7.581,-4.232C-6.826,-4.49 -6.295,-4.936 -5.986,-5.555C-5.676,-6.179 -5.519,-7.091 -5.519,-8.296" style="fill:rgb(128,128,128);fill-rule:nonzero;"/>
        </g>
        <g transform="matrix(4.166667,0,0,4.166667,6217.299583,3146.51125)">
            <path d="M0,8.992C0,13.391 -0.967,16.686 -2.893,18.879C-4.824,21.072 -7.628,22.171 -11.31,22.171C-15.192,22.171 -18.047,21.017 -19.875,18.705C-21.704,16.399 -22.621,13.162 -22.621,8.992C-22.621,4.801 -21.704,1.559 -19.875,-0.74C-18.047,-3.035 -15.192,-4.185 -11.31,-4.185C-7.399,-4.185 -4.54,-3.035 -2.724,-0.74C-0.908,1.559 0,4.801 0,8.992M-5.523,8.992C-5.523,5.997 -5.96,3.812 -6.843,2.442C-7.721,1.071 -9.21,0.384 -11.31,0.384C-13.41,0.384 -14.899,1.071 -15.777,2.442C-16.656,3.812 -17.097,5.997 -17.097,8.992C-17.097,11.991 -16.651,14.176 -15.761,15.547C-14.865,16.915 -13.385,17.602 -11.31,17.602C-9.21,17.602 -7.721,16.915 -6.843,15.547C-5.96,14.176 -5.523,11.991 -5.523,8.992M-10.305,-6.578L-14.195,-6.578L-10.606,-13.179L-4.628,-13.179L-10.305,-6.578Z" style="fill:rgb(128,128,128);fill-rule:nonzero;"/>
        </g>
        <g transform="matrix(4.166667,0,0,4.166667,6314.627917,3161.819583)">
            <path d="M0,10.638C0,13.173 -0.861,15.116 -2.592,16.469C-4.319,17.823 -6.864,18.497 -10.229,18.497C-12.553,18.497 -14.577,18.124 -16.291,17.381C-18.005,16.639 -19.401,15.438 -20.474,13.779L-16.354,10.748C-15.748,11.576 -15.175,12.199 -14.628,12.615C-14.085,13.024 -13.44,13.347 -12.693,13.58C-11.947,13.813 -11.09,13.928 -10.114,13.928C-8.659,13.928 -7.522,13.686 -6.708,13.207C-5.893,12.725 -5.485,11.991 -5.485,11.003C-5.485,10.443 -5.625,9.976 -5.91,9.599C-6.194,9.221 -6.623,8.894 -7.191,8.619C-7.76,8.347 -8.748,8.033 -10.152,7.677C-11.518,7.325 -12.804,6.968 -14.013,6.608C-15.222,6.251 -16.266,5.785 -17.144,5.212C-18.022,4.639 -18.718,3.918 -19.223,3.053C-19.728,2.187 -19.982,1.097 -19.982,-0.218C-19.982,-2.62 -19.138,-4.495 -17.458,-5.84C-15.773,-7.184 -13.364,-7.859 -10.229,-7.859C-5.685,-7.859 -2.474,-6.361 -0.59,-3.362L-4.667,-0.29C-5.388,-1.364 -6.198,-2.132 -7.098,-2.594C-7.997,-3.057 -9.062,-3.29 -10.305,-3.29C-11.544,-3.29 -12.553,-3.073 -13.33,-2.641C-14.106,-2.208 -14.497,-1.529 -14.497,-0.604C-14.497,0.214 -14.093,0.838 -13.283,1.271C-12.473,1.703 -11.064,2.14 -9.049,2.577C-7.937,2.857 -6.839,3.159 -5.749,3.481C-4.663,3.808 -3.691,4.253 -2.838,4.826C-1.981,5.399 -1.298,6.15 -0.776,7.074C-0.259,7.999 0,9.187 0,10.638" style="fill:rgb(128,128,128);fill-rule:nonzero;"/>
        </g>
        <g transform="matrix(4.166667,0,0,4.166667,0,1893.245833)">
            <rect x="1518.663" y="310.488" width="11.819" height="4.645" style="fill:rgb(128,128,128);"/>
        </g>
        <g transform="matrix(4.166667,0,0,4.166667,6467.61875,3207.05125)">
            <path d="M0,-11.074C-0.67,-12.122 -1.489,-12.894 -2.448,-13.395C-3.411,-13.895 -4.62,-14.145 -6.075,-14.145C-8.463,-14.145 -10.194,-13.403 -11.263,-11.922C-12.333,-10.442 -12.867,-8.24 -12.867,-5.317C-12.867,-2.415 -12.337,-0.294 -11.28,1.055C-10.224,2.398 -8.527,3.072 -6.185,3.072C-4.416,3.072 -2.783,2.72 -1.29,2.014L-1.29,-1.915L-6.415,-1.915L-6.415,-6.467L4.077,-6.467L4.077,4.718C2.864,5.592 1.358,6.301 -0.445,6.835C-2.248,7.374 -4.106,7.641 -6.016,7.641C-10.114,7.641 -13.202,6.611 -15.277,4.553C-17.351,2.491 -18.387,-0.795 -18.387,-5.317C-18.387,-14.247 -14.31,-18.715 -6.147,-18.715C-3.771,-18.715 -1.697,-18.333 0.077,-17.565C1.846,-16.797 3.195,-15.668 4.115,-14.184L0,-11.074Z" style="fill:rgb(128,128,128);fill-rule:nonzero;"/>
        </g>
        <g transform="matrix(4.166667,0,0,4.166667,6568.660417,3131.285417)">
            <path d="M0,25.295L-6.699,15.718L-9.414,15.718L-9.414,25.295L-14.764,25.295L-14.764,0L-5.218,0C-1.841,0 0.627,0.585 2.193,1.756C3.754,2.923 4.535,4.844 4.535,7.513C4.535,9.668 4.064,11.386 3.122,12.667C2.181,13.944 0.84,14.763 -0.891,15.115L6.13,25.295L0,25.295ZM-0.891,7.729C-0.891,6.44 -1.23,5.574 -1.909,5.137C-2.584,4.696 -3.7,4.475 -5.256,4.475L-9.414,4.475L-9.414,11.221L-5.486,11.221C-4.281,11.221 -3.36,11.115 -2.715,10.894C-2.07,10.674 -1.604,10.334 -1.32,9.872C-1.036,9.405 -0.891,8.692 -0.891,7.729" style="fill:rgb(128,128,128);fill-rule:nonzero;"/>
        </g>
        <g transform="matrix(4.166667,0,0,4.166667,6595.705,3131.285417)">
            <path d="M0,25.295L8.688,0L15.654,0L24.36,25.295L18.878,25.295L17.131,20.16L7.017,20.16L5.312,25.295L0,25.295ZM8.536,15.646L15.616,15.646L12.086,5.192L8.536,15.646Z" style="fill:rgb(128,128,128);fill-rule:nonzero;"/>
        </g>
        <g transform="matrix(4.166667,0,0,4.166667,6796.282917,3183.98625)">
            <path d="M0,-0.002C0,3.048 -0.437,5.496 -1.311,7.35C-2.185,9.198 -3.5,10.547 -5.256,11.387C-7.017,12.227 -9.49,12.647 -12.676,12.647L-20.682,12.647L-20.682,-12.649L-12.753,-12.649C-9.651,-12.649 -7.191,-12.216 -5.362,-11.35C-3.534,-10.485 -2.185,-9.136 -1.311,-7.303C-0.437,-5.47 0,-3.035 0,-0.002M-5.523,-0.036C-5.523,-2.242 -5.749,-3.88 -6.198,-4.944C-6.644,-6.009 -7.407,-6.777 -8.485,-7.24C-9.558,-7.702 -11.153,-7.931 -13.266,-7.931L-15.315,-7.931L-15.315,7.929L-13.266,7.929C-11.153,7.929 -9.563,7.696 -8.494,7.227C-7.424,6.76 -6.661,5.976 -6.207,4.881C-5.749,3.782 -5.523,2.145 -5.523,-0.036" style="fill:rgb(128,128,128);fill-rule:nonzero;"/>
        </g>
        <g transform="matrix(4.166667,0,0,4.166667,6904.905,3177.658333)">
            <path d="M0,3.604C0,7.562 -0.835,10.407 -2.503,12.138C-4.174,13.869 -6.936,14.734 -10.797,14.734C-14.615,14.734 -17.373,13.877 -19.061,12.163C-20.75,10.453 -21.594,7.6 -21.594,3.604L-21.594,-11.13L-16.244,-11.13L-16.244,3.235C-16.244,4.953 -16.07,6.306 -15.73,7.295C-15.387,8.283 -14.844,9.009 -14.097,9.469C-13.351,9.932 -12.265,10.161 -10.835,10.161C-8.799,10.161 -7.373,9.643 -6.562,8.602C-5.757,7.558 -5.35,5.797 -5.35,3.311L-5.35,-11.13L0,-11.13L0,3.604Z" style="fill:rgb(128,128,128);fill-rule:nonzero;"/>
        </g>
        <g transform="matrix(4.166667,0,0,4.166667,6915.671667,3131.285417)">
            <path d="M0,25.295L8.688,0L15.654,0L24.36,25.295L18.878,25.295L17.131,20.16L7.017,20.16L5.312,25.295L0,25.295ZM8.536,15.646L15.616,15.646L12.086,5.192L8.536,15.646Z" style="fill:rgb(128,128,128);fill-rule:nonzero;"/>
        </g>
        <g transform="matrix(4.166667,0,0,4.166667,7096.169167,3143.552083)">
            <path d="M0,26.097C0,28.413 -1.812,29.572 -5.431,29.572C-7.603,29.572 -9.278,29.296 -10.458,28.749L-9.13,26.097C-7.789,26.649 -6.567,26.92 -5.464,26.92C-4.794,26.92 -4.323,26.852 -4.052,26.712C-3.78,26.572 -3.645,26.356 -3.645,26.063C-3.645,25.295 -4.781,24.854 -7.06,24.744L-6.054,22.843C-13.368,22.393 -17.021,18.011 -17.021,9.702C-17.021,5.209 -15.99,1.888 -13.928,-0.259C-11.866,-2.401 -8.896,-3.475 -5.011,-3.475C-2.444,-3.475 -0.348,-3.059 1.268,-2.223C2.889,-1.387 4.124,-0.293 4.972,1.056L0.814,4.166C0.208,3.288 -0.348,2.656 -0.857,2.265C-1.362,1.875 -1.939,1.582 -2.584,1.387C-3.229,1.192 -4,1.094 -4.896,1.094C-7.047,1.094 -8.685,1.756 -9.813,3.08C-10.937,4.399 -11.501,6.61 -11.501,9.702C-11.501,12.591 -10.971,14.751 -9.915,16.176C-8.858,17.599 -7.174,18.312 -4.858,18.312C-3.305,18.312 -2.092,18.024 -1.226,17.451C-0.361,16.88 0.428,16.121 1.137,15.171L5.367,18.164C4.535,19.335 3.491,20.336 2.235,21.172C0.984,22.007 -0.679,22.538 -2.753,22.771C-1.981,22.941 -1.328,23.314 -0.798,23.887C-0.268,24.459 0,25.198 0,26.097" style="fill:rgb(128,128,128);fill-rule:nonzero;"/>
        </g>
        <g transform="matrix(4.166667,0,0,4.166667,7125.193333,3093.20625)">
            <path d="M0,34.434L8.688,9.139L15.654,9.139L24.36,34.434L18.879,34.434L17.131,29.299L7.017,29.299L5.312,34.434L0,34.434ZM4.306,5.791C4.37,3.903 4.832,2.465 5.689,1.481C6.55,0.493 7.747,0 9.278,0C10.05,0 10.708,0.136 11.251,0.412C11.794,0.684 12.282,0.976 12.71,1.286C13.143,1.6 13.538,1.893 13.898,2.164C14.259,2.44 14.645,2.576 15.065,2.576C15.506,2.576 15.833,2.364 16.041,1.935C16.249,1.511 16.354,0.951 16.354,0.255L19.808,0.255C19.681,2.266 19.206,3.751 18.374,4.705C17.547,5.664 16.354,6.139 14.797,6.139C13.962,6.139 13.274,6.003 12.731,5.728C12.184,5.456 11.709,5.147 11.298,4.807C10.886,4.463 10.508,4.158 10.169,3.882C9.826,3.611 9.448,3.471 9.032,3.471C8.184,3.471 7.759,4.247 7.759,5.791L4.306,5.791ZM8.536,24.785L15.616,24.785L12.086,14.331L8.536,24.785Z" style="fill:rgb(128,128,128);fill-rule:nonzero;"/>
        </g>
        <g transform="matrix(4.166667,0,0,4.166667,7328.210417,3183.98625)">
            <path d="M0,-0.002C0,4.397 -0.963,7.692 -2.894,9.885C-4.819,12.078 -7.628,13.177 -11.306,13.177C-15.192,13.177 -18.047,12.023 -19.875,9.711C-21.704,7.405 -22.616,4.168 -22.616,-0.002C-22.616,-4.193 -21.704,-7.435 -19.875,-9.734C-18.047,-12.029 -15.192,-13.179 -11.306,-13.179C-7.399,-13.179 -4.535,-12.029 -2.719,-9.734C-0.908,-7.435 0,-4.193 0,-0.002M-5.52,-0.002C-5.52,-2.997 -5.96,-5.182 -6.839,-6.552C-7.717,-7.923 -9.206,-8.61 -11.306,-8.61C-13.406,-8.61 -14.895,-7.923 -15.777,-6.552C-16.656,-5.182 -17.097,-2.997 -17.097,-0.002C-17.097,2.997 -16.647,5.182 -15.756,6.553C-14.865,7.921 -13.381,8.608 -11.306,8.608C-9.206,8.608 -7.717,7.921 -6.839,6.553C-5.96,5.182 -5.52,2.997 -5.52,-0.002" style="fill:rgb(128,128,128);fill-rule:nonzero;"/>
        </g>
        <g transform="matrix(4.166667,0,0,4.166667,6101.235,3320.714167)">
            <path d="M0,25.298L-1.366,23.724C-2.278,24.322 -3.275,24.823 -4.366,25.226C-5.452,25.629 -6.813,25.828 -8.442,25.828C-11.442,25.828 -13.809,25.162 -15.549,23.834C-17.288,22.506 -18.158,20.72 -18.158,18.48C-18.158,16.885 -17.797,15.562 -17.067,14.514C-16.342,13.466 -14.874,12.282 -12.677,10.967C-13.423,10.089 -14.06,9.19 -14.59,8.26C-15.125,7.336 -15.387,6.402 -15.387,5.465C-15.387,3.517 -14.717,2.028 -13.376,1.006C-12.036,-0.016 -10.118,-0.53 -7.628,-0.53C-5.541,-0.53 -3.827,-0.08 -2.486,0.824C-1.146,1.723 -0.476,2.996 -0.476,4.642C-0.476,5.52 -0.67,6.347 -1.061,7.128C-1.456,7.908 -1.99,8.638 -2.677,9.321C-3.36,10.004 -4.404,10.789 -5.808,11.68L-0.815,17.327C-0.004,16.27 0.641,14.866 1.12,13.122L5.426,14.077C4.781,16.648 3.669,18.816 2.087,20.58L6.207,25.298L0,25.298ZM-9.923,14.111C-11.111,14.832 -11.943,15.528 -12.409,16.202C-12.876,16.881 -13.113,17.653 -13.113,18.519C-13.113,19.613 -12.689,20.47 -11.841,21.085C-10.992,21.7 -9.834,22.006 -8.366,22.006C-6.737,22.006 -5.308,21.543 -4.077,20.619L-9.923,14.111ZM-5.409,4.68C-5.409,4.179 -5.622,3.764 -6.054,3.437C-6.482,3.106 -7.047,2.945 -7.743,2.945C-8.625,2.945 -9.295,3.148 -9.745,3.564C-10.19,3.98 -10.415,4.544 -10.415,5.265C-10.415,5.766 -10.267,6.258 -9.97,6.746C-9.673,7.234 -9.228,7.798 -8.634,8.443C-7.811,7.921 -7.157,7.45 -6.669,7.03C-6.182,6.606 -5.851,6.237 -5.672,5.914C-5.494,5.592 -5.409,5.181 -5.409,4.68" style="fill:rgb(128,128,128);fill-rule:nonzero;"/>
        </g>
        <g transform="matrix(4.166667,0,0,4.166667,6253.43,3396.496667)">
            <path d="M0,-11.077C-0.67,-12.125 -1.485,-12.897 -2.448,-13.398C-3.406,-13.898 -4.616,-14.148 -6.071,-14.148C-8.463,-14.148 -10.19,-13.406 -11.259,-11.925C-12.328,-10.445 -12.863,-8.243 -12.863,-5.32C-12.863,-2.418 -12.337,-0.297 -11.28,1.052C-10.224,2.397 -8.527,3.071 -6.186,3.071C-4.412,3.071 -2.783,2.719 -1.29,2.011L-1.29,-1.918L-6.415,-1.918L-6.415,-6.47L4.082,-6.47L4.082,4.718C2.868,5.591 1.358,6.3 -0.445,6.834C-2.249,7.373 -4.103,7.641 -6.016,7.641C-10.114,7.641 -13.198,6.61 -15.272,4.552C-17.347,2.49 -18.386,-0.798 -18.386,-5.32C-18.386,-14.25 -14.305,-18.718 -6.147,-18.718C-3.767,-18.718 -1.693,-18.336 0.077,-17.568C1.85,-16.8 3.195,-15.672 4.12,-14.187L0,-11.077Z" style="fill:rgb(128,128,128);fill-rule:nonzero;"/>
        </g>
        <g transform="matrix(4.166667,0,0,4.166667,6354.471667,3320.714167)">
            <path d="M0,25.298L-6.695,15.719L-9.41,15.719L-9.41,25.298L-14.76,25.298L-14.76,0L-5.218,0C-1.837,0 0.632,0.586 2.193,1.757C3.754,2.924 4.535,4.845 4.535,7.514C4.535,9.669 4.064,11.387 3.122,12.668C2.18,13.945 0.844,14.764 -0.891,15.116L6.13,25.298L0,25.298ZM-0.891,7.73C-0.891,6.44 -1.23,5.575 -1.905,5.138C-2.584,4.697 -3.7,4.476 -5.257,4.476L-9.41,4.476L-9.41,11.222L-5.481,11.222C-4.281,11.222 -3.356,11.116 -2.711,10.895C-2.066,10.674 -1.604,10.335 -1.315,9.873C-1.031,9.406 -0.891,8.693 -0.891,7.73" style="fill:rgb(128,128,128);fill-rule:nonzero;"/>
        </g>
        <g transform="matrix(4.166667,0,0,4.166667,6381.516667,3320.714167)">
            <path d="M0,25.298L8.692,0L15.654,0L24.364,25.298L18.879,25.298L17.135,20.16L7.021,20.16L5.312,25.298L0,25.298ZM8.54,15.647L15.616,15.647L12.086,5.193L8.54,15.647Z" style="fill:rgb(128,128,128);fill-rule:nonzero;"/>
        </g>
        <g transform="matrix(4.166667,0,0,4.166667,6582.094167,3373.427083)">
            <path d="M0,-0.004C0,3.046 -0.437,5.494 -1.307,7.348C-2.181,9.198 -3.496,10.547 -5.256,11.387C-7.013,12.227 -9.486,12.647 -12.672,12.647L-20.682,12.647L-20.682,-12.651L-12.749,-12.651C-9.652,-12.651 -7.187,-12.218 -5.358,-11.352C-3.53,-10.487 -2.181,-9.138 -1.307,-7.305C-0.437,-5.472 0,-3.037 0,-0.004M-5.52,-0.038C-5.52,-2.244 -5.744,-3.882 -6.194,-4.946C-6.644,-6.011 -7.407,-6.779 -8.48,-7.241C-9.558,-7.704 -11.149,-7.933 -13.262,-7.933L-15.311,-7.933L-15.311,7.929L-13.262,7.929C-11.149,7.929 -9.558,7.696 -8.489,7.225C-7.42,6.758 -6.661,5.974 -6.203,4.879C-5.749,3.78 -5.52,2.143 -5.52,-0.038" style="fill:rgb(128,128,128);fill-rule:nonzero;"/>
        </g>
        <g transform="matrix(4.166667,0,0,4.166667,6690.735,3367.099167)">
            <path d="M0,3.602C0,7.56 -0.835,10.407 -2.507,12.138C-4.174,13.869 -6.94,14.734 -10.797,14.734C-14.619,14.734 -17.373,13.877 -19.061,12.163C-20.75,10.454 -21.594,7.598 -21.594,3.602L-21.594,-11.132L-16.244,-11.132L-16.244,3.233C-16.244,4.951 -16.074,6.304 -15.731,7.293C-15.392,8.281 -14.849,9.007 -14.102,9.469C-13.355,9.932 -12.265,10.161 -10.835,10.161C-8.799,10.161 -7.377,9.643 -6.567,8.6C-5.757,7.556 -5.354,5.795 -5.354,3.309L-5.354,-11.132L0,-11.132L0,3.602Z" style="fill:rgb(128,128,128);fill-rule:nonzero;"/>
        </g>
        <g transform="matrix(4.166667,0,0,4.166667,6701.483333,3320.714167)">
            <path d="M0,25.298L8.692,0L15.654,0L24.364,25.298L18.878,25.298L17.135,20.16L7.021,20.16L5.311,25.298L0,25.298ZM8.54,15.647L15.616,15.647L12.086,5.193L8.54,15.647Z" style="fill:rgb(128,128,128);fill-rule:nonzero;"/>
        </g>
        <g transform="matrix(4.166667,0,0,4.166667,6881.980417,3332.98125)">
            <path d="M0,26.1C0,28.416 -1.808,29.574 -5.426,29.574C-7.603,29.574 -9.278,29.299 -10.454,28.751L-9.125,26.1C-7.785,26.652 -6.563,26.923 -5.464,26.923C-4.794,26.923 -4.323,26.855 -4.052,26.715C-3.78,26.575 -3.645,26.359 -3.645,26.066C-3.645,25.298 -4.781,24.857 -7.06,24.747L-6.054,22.846C-13.364,22.396 -17.021,18.014 -17.021,9.703C-17.021,5.21 -15.99,1.889 -13.928,-0.258C-11.866,-2.401 -8.893,-3.474 -5.01,-3.474C-2.439,-3.474 -0.348,-3.058 1.272,-2.222C2.889,-1.387 4.124,-0.292 4.972,1.057L0.814,4.167C0.208,3.289 -0.348,2.656 -0.853,2.266C-1.358,1.876 -1.935,1.583 -2.58,1.388C-3.225,1.193 -3.997,1.095 -4.896,1.095C-7.047,1.095 -8.685,1.757 -9.809,3.081C-10.937,4.4 -11.497,6.61 -11.497,9.703C-11.497,12.592 -10.971,14.751 -9.915,16.177C-8.858,17.602 -7.174,18.315 -4.858,18.315C-3.301,18.315 -2.092,18.027 -1.222,17.454C-0.356,16.881 0.433,16.122 1.141,15.172L5.371,18.167C4.535,19.338 3.491,20.339 2.24,21.175C0.988,22.01 -0.675,22.541 -2.75,22.774C-1.981,22.944 -1.328,23.317 -0.798,23.89C-0.263,24.462 0,25.201 0,26.1" style="fill:rgb(128,128,128);fill-rule:nonzero;"/>
        </g>
        <g transform="matrix(4.166667,0,0,4.166667,6911.004583,3282.639167)">
            <path d="M0,34.436L8.688,9.138L15.655,9.138L24.36,34.436L18.879,34.436L17.131,29.298L7.017,29.298L5.312,34.436L0,34.436ZM4.306,5.791C4.37,3.903 4.832,2.465 5.689,1.481C6.55,0.492 7.747,0 9.278,0C10.05,0 10.708,0.136 11.251,0.412C11.794,0.683 12.282,0.976 12.71,1.286C13.143,1.6 13.538,1.892 13.898,2.164C14.259,2.44 14.645,2.575 15.065,2.575C15.506,2.575 15.833,2.363 16.041,1.935C16.249,1.511 16.354,0.951 16.354,0.255L19.808,0.255C19.681,2.266 19.206,3.751 18.374,4.705C17.547,5.664 16.354,6.139 14.797,6.139C13.962,6.139 13.274,6.003 12.731,5.728C12.184,5.456 11.709,5.146 11.297,4.807C10.886,4.463 10.508,4.158 10.169,3.882C9.826,3.611 9.448,3.471 9.032,3.471C8.184,3.471 7.759,4.247 7.759,5.791L4.306,5.791ZM8.536,24.785L15.616,24.785L12.086,14.331L8.536,24.785Z" style="fill:rgb(128,128,128);fill-rule:nonzero;"/>
        </g>
        <g transform="matrix(4.166667,0,0,4.166667,7114.04,3373.427083)">
            <path d="M0,-0.004C0,4.395 -0.967,7.692 -2.894,9.885C-4.824,12.078 -7.628,13.177 -11.311,13.177C-15.192,13.177 -18.047,12.023 -19.876,9.711C-21.705,7.403 -22.621,4.166 -22.621,-0.004C-22.621,-4.195 -21.705,-7.437 -19.876,-9.736C-18.047,-12.031 -15.192,-13.181 -11.311,-13.181C-7.399,-13.181 -4.54,-12.031 -2.724,-9.736C-0.908,-7.437 0,-4.195 0,-0.004M-5.524,-0.004C-5.524,-2.999 -5.961,-5.184 -6.843,-6.554C-7.721,-7.925 -9.21,-8.612 -11.311,-8.612C-13.411,-8.612 -14.899,-7.925 -15.778,-6.554C-16.656,-5.184 -17.097,-2.999 -17.097,-0.004C-17.097,2.995 -16.652,5.18 -15.761,6.551C-14.866,7.921 -13.385,8.608 -11.311,8.608C-9.21,8.608 -7.721,7.921 -6.843,6.551C-5.961,5.18 -5.524,2.995 -5.524,-0.004" style="fill:rgb(128,128,128);fill-rule:nonzero;"/>
        </g>
        <g transform="matrix(4.166667,0,0,4.166667,3641.262917,3425.802083)">
            <path d="M0,-117.387L96.025,-117.387C164.628,-117.382 165.075,-42.177 95.844,-42.177L40.715,-42.117L40.715,-53.153C40.715,-59.598 44.958,-64.872 50.147,-64.872C65.592,-64.872 80.962,-64.837 96.407,-64.837C127.875,-64.837 128.282,-94.722 96.397,-94.722L25.164,-94.722C25.169,-67.054 25.184,-39.387 25.184,-11.714C25.184,-5.269 20.941,0 15.757,0L-5.686,0C-5.696,-37.205 -5.727,-74.415 -5.727,-111.63C-5.727,-114.194 -3.901,-117.387 0,-117.387M418.569,-42.132L418.548,-53.133C418.543,-59.583 422.792,-64.857 427.98,-64.857C459.424,-64.857 490.862,-64.842 522.316,-64.842C522.321,-46.742 522.296,-28.683 522.296,-10.608C521.868,-4.982 518.198,-0.477 513.653,-0.04C486.518,-0.04 459.394,0 432.224,0C411.077,0 392.731,-5.701 378.598,-18.798C366.104,-30.523 360.327,-44.374 360.327,-59.885C360.322,-74.802 365.566,-88.287 377.819,-99.393C392.143,-112.359 411.183,-117.387 432.189,-117.387C458.73,-117.387 485.297,-117.377 511.823,-117.377L511.843,-106.376C511.848,-99.936 507.594,-94.662 502.411,-94.662C478.951,-94.662 455.643,-94.722 432.194,-94.722C378.533,-94.722 377.447,-22.655 432.214,-22.655L494.764,-22.655L494.759,-42.187L418.569,-42.132ZM-50.971,-117.387C-56.155,-117.387 -60.403,-112.113 -60.403,-105.667C-60.403,-70.443 -60.378,-35.224 -60.368,0C-52.922,0 -45.566,-0.04 -38.105,-0.04C-33.681,-0.462 -30.081,-4.746 -29.503,-10.171C-29.503,-45.908 -29.513,-81.645 -29.523,-117.387L-50.971,-117.387ZM252.457,-95.718C237.108,-95.718 215.589,-94.249 202.607,-85.089C194.759,-79.573 190.838,-70.7 190.838,-58.477C190.838,-45.491 195.795,-35.943 205.725,-29.829C215.529,-23.826 231.17,-20.824 252.633,-20.824C273.403,-20.824 288.722,-23.866 298.587,-29.95C308.456,-36.038 313.388,-45.465 313.388,-58.231C313.388,-69.81 309.406,-78.653 301.443,-84.767C292.096,-92.012 275.766,-95.662 252.457,-95.718M252.281,-120.193C271.085,-120.193 287.596,-118.116 301.82,-113.963C318.607,-109.036 330.347,-100.76 337.044,-89.131C342.363,-79.991 345.028,-69.252 345.028,-56.913C345.028,-44.57 341.77,-33.831 335.258,-24.695C328.748,-15.559 318.778,-9.048 305.354,-5.17C293.514,-1.723 276.458,0 254.192,0L162.617,0C162.617,-37.207 162.582,-74.418 162.582,-111.633C162.582,-114.197 164.407,-117.391 168.309,-117.391L254.192,-117.391C254.192,-117.391 252.281,-120.193 252.281,-120.193" style="fill:rgb(215,28,55);fill-rule:nonzero;"/>
        </g>
    </g>
</svg>
