<svg width="124" height="27" viewBox="0 0 124 27" fill="none" xmlns="http://www.w3.org/2000/svg">
<path fill-rule="evenodd" clip-rule="evenodd" d="M66.157 0C70.1355 0 73.629 0.443537 76.6383 1.33062C80.1901 2.38325 82.674 4.15086 84.0908 6.6349C85.2163 8.58735 85.78 10.881 85.78 13.5164C85.78 16.1529 85.0909 18.4405 83.7131 20.3802C82.0249 22.7114 79.4135 24.3342 75.8818 25.246C73.2415 25.9312 70.2048 26.2728 66.7686 26.2728C62.3039 26.2728 58.413 25.7281 55.094 24.638C52.3186 23.7255 50.1987 22.297 48.7329 20.3511C47.2678 18.4063 46.5351 16.0445 46.5351 13.2694C46.5351 8.32719 48.4179 4.80362 52.1823 2.69981C55.3661 0.925647 60.0233 0.025833 66.157 0ZM66.1942 5.22787C62.9465 5.22787 58.3939 5.54152 55.6473 7.49833C53.9865 8.67649 53.1569 10.5718 53.1569 13.1824C53.1569 15.9565 54.2056 17.9959 56.3068 19.3017C58.3809 20.584 61.6902 21.2251 66.2316 21.2251C70.6257 21.2251 73.8672 20.5756 75.9543 19.2759C78.0425 17.9755 79.0858 15.9619 79.0858 13.2352C79.0858 10.7621 78.2436 8.87297 76.5583 7.5671C74.5808 6.01926 71.1259 5.23988 66.1942 5.22787ZM1.99556 0.599267C0.898851 0.599267 0 1.72577 0 3.1026C0 10.6267 0.00540467 18.1494 0.0075671 25.6736C1.5829 25.6736 3.13913 25.6648 4.7177 25.6648C5.65403 25.5746 6.41557 24.6599 6.53775 23.501C6.53775 15.8673 6.53558 8.23404 6.53378 0.599267H1.99556ZM101.34 16.674L101.335 14.3242C101.334 12.9463 102.233 11.8198 103.331 11.8198C109.984 11.8198 116.635 11.8231 123.29 11.8231C123.291 15.689 123.286 19.5466 123.286 23.4075C123.195 24.6093 122.419 25.5713 121.457 25.6648C115.716 25.6648 109.977 25.6736 104.229 25.6736C99.7547 25.6736 95.8732 24.4557 92.8829 21.6581C90.2393 19.1536 89.0172 16.1948 89.0172 12.8819C89.0161 9.69565 90.1254 6.81537 92.7178 4.44304C95.7485 1.67337 99.7771 0.599267 104.221 0.599267C109.837 0.599267 115.458 0.601447 121.07 0.601447L121.074 2.95123C121.076 4.32697 120.176 5.45346 119.079 5.45346C114.115 5.45346 109.184 5.44073 104.222 5.44073C92.8688 5.44073 92.6392 20.8343 104.227 20.8343H117.461L117.46 16.662L101.34 16.674ZM12.78 0.599267H33.0967C47.6117 0.600357 47.7061 16.6642 33.0582 16.6642L21.3903 16.6631V25.6648H12.78V0.599267ZM21.3903 5.44073V11.8198H33.0967C40.0952 11.8198 40.0952 5.44073 33.0967 5.44073H21.3903Z" fill="white"/>
</svg>
